<svg width="501" height="146" viewBox="0 0 501 146" fill="none" xmlns="http://www.w3.org/2000/svg">
<path d="M138.8 4.19997V10.2C131.867 10.0666 127.133 10.8666 124.6 12.6C120.867 15 117.133 21.4 113.4 31.8L70 145.8H62L15 10.2H2.46316e-05V4.19997H51.8V10.2H35.8L72.6 115.8L105.4 31.8C107.8 25.5333 109 21 109 18.2C109 15.4 108.6 13.4 107.8 12.2C107.267 10.8666 103.067 10.2 95.2 10.2V4.19997H138.8ZM260.345 135.4V141.6H208.345V135.4H224.345L210.745 96H162.545L154.945 114C152.545 120.133 151.345 124.667 151.345 127.6C151.345 130.4 151.745 132.4 152.545 133.6C153.345 134.8 157.545 135.4 165.145 135.4V141.6H121.545V135.4C128.479 135.533 133.479 134.667 136.545 132.8C139.745 130.8 143.212 124.533 146.945 114L190.345 -2.52724e-05H198.345L245.545 135.4H260.345ZM165.345 88.4H207.945L188.145 29.8L165.345 88.4ZM363.155 97.6C363.155 113.067 356.955 124.867 344.555 133C333.888 140.067 320.488 143.6 304.355 143.6C294.621 143.6 283.755 141.333 271.755 136.8L271.955 105H277.955C278.755 115.533 281.888 123.133 287.355 127.8C289.888 129.933 293.621 131.733 298.555 133.2C303.488 134.667 307.955 135.333 311.955 135.2C321.155 135.067 329.221 132.6 336.155 127.8C342.955 122.867 346.488 116.267 346.755 108C346.755 99.3333 343.688 92.4 337.555 87.2C331.555 82 323.221 78.8 312.555 77.6C284.155 74.1333 269.955 62.2666 269.955 42C269.955 27.8666 275.355 17.1333 286.155 9.79997C295.355 3.39997 306.555 0.199972 319.755 0.199972C323.621 0.199972 328.221 0.799972 333.555 1.99997C338.888 3.06663 342.288 3.59996 343.755 3.59996C345.355 3.59996 346.421 2.59997 346.955 0.599967H352.555V36.4H346.555C345.621 26.5333 342.621 19.4 337.555 15C332.621 10.6 325.221 8.46664 315.355 8.59997C295.888 8.86663 286.288 17.6 286.555 34.8C286.821 50.1333 297.488 58.8666 318.555 61C348.288 64.2 363.155 76.4 363.155 97.6ZM500.694 3.79997L500.894 11.2C493.027 10.9333 488.094 11.8666 486.094 14C483.294 16.5333 479.96 21.9333 476.094 30.2L447.094 86.4V135.6L466.294 135.4V141.8L409.894 141.6V135.4L428.294 135.6V87.4L384.294 9.99997H369.094V3.79997H421.294V9.99997H406.494L442.694 77L465.494 32.4C469.494 25.4666 471.494 20.2 471.494 16.6C471.494 15 470.427 13.3333 468.294 11.6C467.227 10.5333 463.36 10.1333 456.694 10.4L456.894 3.79997H500.694Z" fill="black"/>
</svg>
